# xmcd CD database file
#
# Track frame offsets:
#	150
#	8365
#	16547
#	28035
#	40942
#	52672
#	82350
#	94995
#	108745
#	117632
#	149860
#	162795
#	173575
#	184192
#	199952
#
# Disc length: 2852 seconds
#
# Revision: 3
# Processed by: cddbd v1.5.2PL0 Copyright (c) Steve Scherf et al.
# Submitted via: CDex 1.60beta1-cs1
#
DISCID=c70b220f
DTITLE=CAPTAIN HEDGE HOG - LAST GIG 020704
DYEAR=2002
DGENRE=Bootleg
TTITLE0=Profile Narration
TTITLE1=I'M MISERABLE
TTITLE2=BEFORE I KNOW
TTITLE3=THE WORST
TTITLE4=暴走特急
TTITLE5=EMOTION
TTITLE6=MELODY
TTITLE7=MY ANXIETY
TTITLE8=GREED
TTITLE9=SLOPPY ABOUT MY LIFE
TTITLE10=GOIN' ON
TTITLE11=I DON'T CARE WHAT PEOPLE THINK OF ME
TTITLE12=EQUAL
TTITLE13=NOTHING CHANGE
TTITLE14=JUST ROUNDABOUT WAY
EXTD=YEAR: 2002
EXTT0=
EXTT1=
EXTT2=
EXTT3=
EXTT4=
EXTT5=
EXTT6=
EXTT7=
EXTT8=
EXTT9=
EXTT10=
EXTT11=
EXTT12=
EXTT13=
EXTT14=
PLAYORDER=
